<?xml version="1.0" encoding="UTF-8" standalone="no"?>
<!-- Created with Inkscape (http://www.inkscape.org/) -->

<svg
   xmlns:dc="http://purl.org/dc/elements/1.1/"
   xmlns:cc="http://creativecommons.org/ns#"
   xmlns:rdf="http://www.w3.org/1999/02/22-rdf-syntax-ns#"
   xmlns:svg="http://www.w3.org/2000/svg"
   xmlns="http://www.w3.org/2000/svg"
   xmlns:sodipodi="http://sodipodi.sourceforge.net/DTD/sodipodi-0.dtd"
   xmlns:inkscape="http://www.inkscape.org/namespaces/inkscape"
   width="200mm"
   height="200mm"
   viewBox="0 0 200 200"
   version="1.1"
   id="svg8"
   inkscape:version="0.92.2 5c3e80d, 2017-08-06"
   sodipodi:docname="acryl-plate.svg">
  <defs
     id="defs2" />
  <sodipodi:namedview
     id="base"
     pagecolor="#ffffff"
     bordercolor="#666666"
     borderopacity="1.0"
     inkscape:pageopacity="0.0"
     inkscape:pageshadow="2"
     inkscape:zoom="0.76596875"
     inkscape:cx="377.95276"
     inkscape:cy="377.95276"
     inkscape:document-units="mm"
     inkscape:current-layer="layer1"
     showgrid="false"
     inkscape:window-width="1440"
     inkscape:window-height="792"
     inkscape:window-x="0"
     inkscape:window-y="1"
     inkscape:window-maximized="1" />
  <metadata
     id="metadata5">
    <rdf:RDF>
      <cc:Work
         rdf:about="">
        <dc:format>image/svg+xml</dc:format>
        <dc:type
           rdf:resource="http://purl.org/dc/dcmitype/StillImage" />
        <dc:title></dc:title>
      </cc:Work>
    </rdf:RDF>
  </metadata>
  <g
     inkscape:label="Layer 1"
     inkscape:groupmode="layer"
     id="layer1"
     transform="translate(0,-97)">
    <g
       id="g1052"
       transform="matrix(0.00254,0,0,0.00254,60.775982,79.974991)">
      <g
         id="g939"
         style="fill:#000000;fill-opacity:1;stroke:#000000;stroke-linecap:round;stroke-linejoin:round;stroke-opacity:1" />
      <g
         id="g941"
         style="fill:#000000;fill-opacity:0;stroke:#000000;stroke-width:-0.0003937;stroke-linecap:round;stroke-linejoin:round;stroke-opacity:1" />
      <g
         id="g1007"
         style="fill:#000000;fill-opacity:0;stroke:#000000;stroke-width:19.68499947;stroke-linecap:round;stroke-linejoin:round;stroke-opacity:1">
        <circle
           id="circle943"
           r="433.07101"
           cy="47736.199"
           cx="31496.1" />
        <circle
           id="circle945"
           r="433.07101"
           cy="47736.199"
           cx="39074.801" />
        <circle
           id="circle947"
           r="433.07101"
           cy="27165.4"
           cx="39074.801" />
        <circle
           id="circle949"
           r="433.07101"
           cy="27165.4"
           cx="31496.1" />
        <path
           id="path951"
           d="m 30610.2,20177.2 a 196.85,196.85 0 0 0 -196.8,196.8"
           inkscape:connector-curvature="0" />
        <path
           id="path953"
           d="m 40157.5,20374 a 196.85,196.85 0 0 0 -196.9,-196.8"
           inkscape:connector-curvature="0" />
        <path
           id="path955"
           d="m 39960.6,48818.9 a 196.85,196.85 0 0 0 196.9,-196.9"
           inkscape:connector-curvature="0" />
        <path
           id="path957"
           d="m 30413.4,48622 a 196.85,196.85 0 0 0 196.8,196.9"
           inkscape:connector-curvature="0" />
        <path
           id="path959"
           d="m 36712.6,33858.3 a 590.551,590.551 0 0 0 590.5,-590.6"
           inkscape:connector-curvature="0" />
        <path
           id="path961"
           d="m 33267.7,33267.7 a 590.551,590.551 0 0 0 590.6,590.6"
           inkscape:connector-curvature="0" />
        <path
           id="path963"
           d="m 37303.1,28740.2 a 590.551,590.551 0 0 0 -590.5,-590.6"
           inkscape:connector-curvature="0" />
        <path
           id="path965"
           d="m 33858.3,28149.6 a 590.551,590.551 0 0 0 -590.6,590.6"
           inkscape:connector-curvature="0" />
        <path
           id="path967"
           d="m 37303,28740 v 4527"
           inkscape:connector-curvature="0" />
        <path
           id="path969"
           d="m 33858,28149 h 2854"
           inkscape:connector-curvature="0" />
        <path
           id="path971"
           d="M 33267,33267 V 28740"
           inkscape:connector-curvature="0" />
        <path
           id="path973"
           d="M 36712,33858 H 33858"
           inkscape:connector-curvature="0" />
        <path
           id="path975"
           d="M 30413,20374 V 48622"
           inkscape:connector-curvature="0" />
        <path
           id="path977"
           d="M 39960,20177 H 30610"
           inkscape:connector-curvature="0" />
        <path
           id="path979"
           d="M 40157,48622 V 20374"
           inkscape:connector-curvature="0" />
        <path
           id="path981"
           d="m 30610,48818 h 9350"
           inkscape:connector-curvature="0" />
        <g
           id="g983" />
        <g
           id="g985" />
        <g
           id="g987" />
        <g
           id="g989" />
        <g
           id="g991" />
        <g
           id="g993" />
        <g
           id="g995" />
        <g
           id="g997" />
        <g
           id="g999" />
        <g
           id="g1001" />
        <g
           id="g1003" />
        <g
           id="g1005" />
      </g>
    </g>
    <g
       transform="matrix(0.00254,0,0,0.00254,60.775982,167.97499)"
       id="g1938">
      <g
         style="fill:#000000;fill-opacity:1;stroke:#000000;stroke-linecap:round;stroke-linejoin:round;stroke-opacity:1"
         id="g1868" />
      <g
         style="fill:#000000;fill-opacity:0;stroke:#000000;stroke-width:-0.0003937;stroke-linecap:round;stroke-linejoin:round;stroke-opacity:1"
         id="g1870" />
      <g
         style="fill:#000000;fill-opacity:0;stroke:#000000;stroke-width:19.68499947;stroke-linecap:round;stroke-linejoin:round;stroke-opacity:1"
         id="g1936">
        <circle
           cx="31496.1"
           cy="47736.199"
           r="433.07101"
           id="circle1872" />
        <circle
           cx="39074.801"
           cy="47736.199"
           r="433.07101"
           id="circle1874" />
        <circle
           cx="39074.801"
           cy="27165.4"
           r="433.07101"
           id="circle1876" />
        <circle
           cx="31496.1"
           cy="27165.4"
           r="433.07101"
           id="circle1878" />
        <path
           inkscape:connector-curvature="0"
           d="m 30610.2,20177.2 a 196.85,196.85 0 0 0 -196.8,196.8"
           id="path1880" />
        <path
           inkscape:connector-curvature="0"
           d="m 40157.5,20374 a 196.85,196.85 0 0 0 -196.9,-196.8"
           id="path1882" />
        <path
           inkscape:connector-curvature="0"
           d="m 39960.6,48818.9 a 196.85,196.85 0 0 0 196.9,-196.9"
           id="path1884" />
        <path
           inkscape:connector-curvature="0"
           d="m 30413.4,48622 a 196.85,196.85 0 0 0 196.8,196.9"
           id="path1886" />
        <path
           inkscape:connector-curvature="0"
           d="m 36712.6,33858.3 a 590.551,590.551 0 0 0 590.5,-590.6"
           id="path1888" />
        <path
           inkscape:connector-curvature="0"
           d="m 33267.7,33267.7 a 590.551,590.551 0 0 0 590.6,590.6"
           id="path1890" />
        <path
           inkscape:connector-curvature="0"
           d="m 37303.1,28740.2 a 590.551,590.551 0 0 0 -590.5,-590.6"
           id="path1892" />
        <path
           inkscape:connector-curvature="0"
           d="m 33858.3,28149.6 a 590.551,590.551 0 0 0 -590.6,590.6"
           id="path1894" />
        <path
           inkscape:connector-curvature="0"
           d="m 37303,28740 v 4527"
           id="path1896" />
        <path
           inkscape:connector-curvature="0"
           d="m 33858,28149 h 2854"
           id="path1898" />
        <path
           inkscape:connector-curvature="0"
           d="M 33267,33267 V 28740"
           id="path1900" />
        <path
           inkscape:connector-curvature="0"
           d="M 36712,33858 H 33858"
           id="path1902" />
        <path
           inkscape:connector-curvature="0"
           d="M 30413,20374 V 48622"
           id="path1904" />
        <path
           inkscape:connector-curvature="0"
           d="M 39960,20177 H 30610"
           id="path1906" />
        <path
           inkscape:connector-curvature="0"
           d="M 40157,48622 V 20374"
           id="path1908" />
        <path
           inkscape:connector-curvature="0"
           d="m 30610,48818 h 9350"
           id="path1910" />
        <g
           id="g1912" />
        <g
           id="g1914" />
        <g
           id="g1916" />
        <g
           id="g1918" />
        <g
           id="g1920" />
        <g
           id="g1922" />
        <g
           id="g1924" />
        <g
           id="g1926" />
        <g
           id="g1928" />
        <g
           id="g1930" />
        <g
           id="g1932" />
        <g
           id="g1934" />
      </g>
    </g>
    <g
       id="g1940"
       style="fill:#000000;fill-opacity:1;stroke:#000000;stroke-linecap:round;stroke-linejoin:round;stroke-opacity:1"
       transform="matrix(0.00254,0,0,0.00254,90.775982,167.97499)" />
    <g
       id="g1942"
       style="fill:#000000;fill-opacity:0;stroke:#000000;stroke-width:-0.0003937;stroke-linecap:round;stroke-linejoin:round;stroke-opacity:1"
       transform="matrix(0.00254,0,0,0.00254,90.775982,167.97499)" />
    <circle
       style="fill:#000000;fill-opacity:0;stroke:#000000;stroke-width:0.0499999;stroke-linecap:round;stroke-linejoin:round;stroke-opacity:1"
       cx="170.77608"
       cy="289.22495"
       r="1.1000004"
       id="circle1944" />
    <circle
       style="fill:#000000;fill-opacity:0;stroke:#000000;stroke-width:0.0499999;stroke-linecap:round;stroke-linejoin:round;stroke-opacity:1"
       cx="190.02597"
       cy="289.22495"
       r="1.1000004"
       id="circle1946" />
    <circle
       style="fill:#000000;fill-opacity:0;stroke:#000000;stroke-width:0.0499999;stroke-linecap:round;stroke-linejoin:round;stroke-opacity:1"
       cx="190.02597"
       cy="236.97511"
       r="1.1000004"
       id="circle1948" />
    <circle
       style="fill:#000000;fill-opacity:0;stroke:#000000;stroke-width:0.0499999;stroke-linecap:round;stroke-linejoin:round;stroke-opacity:1"
       cx="170.77608"
       cy="236.97511"
       r="1.1000004"
       id="circle1950" />
    <path
       style="fill:#000000;fill-opacity:0;stroke:#000000;stroke-width:0.0499999;stroke-linecap:round;stroke-linejoin:round;stroke-opacity:1"
       inkscape:connector-curvature="0"
       d="m 168.52589,219.22508 a 0.499999,0.499999 0 0 0 -0.49987,0.49987"
       id="path1952" />
    <path
       style="fill:#000000;fill-opacity:0;stroke:#000000;stroke-width:0.0499999;stroke-linecap:round;stroke-linejoin:round;stroke-opacity:1"
       inkscape:connector-curvature="0"
       d="m 192.77603,219.72495 a 0.499999,0.499999 0 0 0 -0.50012,-0.49987"
       id="path1954" />
    <path
       style="fill:#000000;fill-opacity:0;stroke:#000000;stroke-width:0.0499999;stroke-linecap:round;stroke-linejoin:round;stroke-opacity:1"
       inkscape:connector-curvature="0"
       d="m 192.27591,291.975 a 0.499999,0.499999 0 0 0 0.50012,-0.50013"
       id="path1956" />
    <path
       style="fill:#000000;fill-opacity:0;stroke:#000000;stroke-width:0.0499999;stroke-linecap:round;stroke-linejoin:round;stroke-opacity:1"
       inkscape:connector-curvature="0"
       d="m 168.02602,291.47487 a 0.499999,0.499999 0 0 0 0.49987,0.50013"
       id="path1958" />
    <path
       style="fill:#000000;fill-opacity:0;stroke:#000000;stroke-width:0.0499999;stroke-linecap:round;stroke-linejoin:round;stroke-opacity:1"
       inkscape:connector-curvature="0"
       d="m 168.025,219.72495 v 71.74992"
       id="path1976" />
    <path
       style="fill:#000000;fill-opacity:0;stroke:#000000;stroke-width:0.0499999;stroke-linecap:round;stroke-linejoin:round;stroke-opacity:1"
       inkscape:connector-curvature="0"
       d="m 192.27438,219.22457 h -23.749"
       id="path1978" />
    <path
       style="fill:#000000;fill-opacity:0;stroke:#000000;stroke-width:0.0499999;stroke-linecap:round;stroke-linejoin:round;stroke-opacity:1"
       inkscape:connector-curvature="0"
       d="M 192.77476,291.47487 V 219.72495"
       id="path1980" />
    <path
       style="fill:#000000;fill-opacity:0;stroke:#000000;stroke-width:0.0499999;stroke-linecap:round;stroke-linejoin:round;stroke-opacity:1"
       inkscape:connector-curvature="0"
       d="m 168.52538,291.97271 h 23.749"
       id="path1982" />
    <g
       style="fill:#000000;fill-opacity:0;stroke:#000000;stroke-width:19.68499947;stroke-linecap:round;stroke-linejoin:round;stroke-opacity:1"
       id="g1984"
       transform="matrix(0.00254,0,0,0.00254,90.775982,167.97499)" />
    <g
       style="fill:#000000;fill-opacity:0;stroke:#000000;stroke-width:19.68499947;stroke-linecap:round;stroke-linejoin:round;stroke-opacity:1"
       id="g1986"
       transform="matrix(0.00254,0,0,0.00254,90.775982,167.97499)" />
    <g
       style="fill:#000000;fill-opacity:0;stroke:#000000;stroke-width:19.68499947;stroke-linecap:round;stroke-linejoin:round;stroke-opacity:1"
       id="g1988"
       transform="matrix(0.00254,0,0,0.00254,90.775982,167.97499)" />
    <g
       style="fill:#000000;fill-opacity:0;stroke:#000000;stroke-width:19.68499947;stroke-linecap:round;stroke-linejoin:round;stroke-opacity:1"
       id="g1990"
       transform="matrix(0.00254,0,0,0.00254,90.775982,167.97499)" />
    <g
       style="fill:#000000;fill-opacity:0;stroke:#000000;stroke-width:19.68499947;stroke-linecap:round;stroke-linejoin:round;stroke-opacity:1"
       id="g1992"
       transform="matrix(0.00254,0,0,0.00254,90.775982,167.97499)" />
    <g
       style="fill:#000000;fill-opacity:0;stroke:#000000;stroke-width:19.68499947;stroke-linecap:round;stroke-linejoin:round;stroke-opacity:1"
       id="g1994"
       transform="matrix(0.00254,0,0,0.00254,90.775982,167.97499)" />
    <g
       style="fill:#000000;fill-opacity:0;stroke:#000000;stroke-width:19.68499947;stroke-linecap:round;stroke-linejoin:round;stroke-opacity:1"
       id="g1996"
       transform="matrix(0.00254,0,0,0.00254,90.775982,167.97499)" />
    <g
       style="fill:#000000;fill-opacity:0;stroke:#000000;stroke-width:19.68499947;stroke-linecap:round;stroke-linejoin:round;stroke-opacity:1"
       id="g1998"
       transform="matrix(0.00254,0,0,0.00254,90.775982,167.97499)" />
    <g
       style="fill:#000000;fill-opacity:0;stroke:#000000;stroke-width:19.68499947;stroke-linecap:round;stroke-linejoin:round;stroke-opacity:1"
       id="g2000"
       transform="matrix(0.00254,0,0,0.00254,90.775982,167.97499)" />
    <g
       style="fill:#000000;fill-opacity:0;stroke:#000000;stroke-width:19.68499947;stroke-linecap:round;stroke-linejoin:round;stroke-opacity:1"
       id="g2002"
       transform="matrix(0.00254,0,0,0.00254,90.775982,167.97499)" />
    <g
       style="fill:#000000;fill-opacity:0;stroke:#000000;stroke-width:19.68499947;stroke-linecap:round;stroke-linejoin:round;stroke-opacity:1"
       id="g2004"
       transform="matrix(0.00254,0,0,0.00254,90.775982,167.97499)" />
    <g
       style="fill:#000000;fill-opacity:0;stroke:#000000;stroke-width:19.68499947;stroke-linecap:round;stroke-linejoin:round;stroke-opacity:1"
       id="g2006"
       transform="matrix(0.00254,0,0,0.00254,90.775982,167.97499)" />
    <g
       id="g2012"
       style="fill:#000000;fill-opacity:1;stroke:#000000;stroke-linecap:round;stroke-linejoin:round;stroke-opacity:1"
       transform="matrix(0.00254,0,0,0.00254,90.775982,79.974991)" />
    <g
       id="g2014"
       style="fill:#000000;fill-opacity:0;stroke:#000000;stroke-width:-0.0003937;stroke-linecap:round;stroke-linejoin:round;stroke-opacity:1"
       transform="matrix(0.00254,0,0,0.00254,90.775982,79.974991)" />
    <circle
       style="fill:#000000;fill-opacity:0;stroke:#000000;stroke-width:0.0499999;stroke-linecap:round;stroke-linejoin:round;stroke-opacity:1"
       cx="170.77608"
       cy="201.22493"
       r="1.1000004"
       id="circle2016" />
    <circle
       style="fill:#000000;fill-opacity:0;stroke:#000000;stroke-width:0.0499999;stroke-linecap:round;stroke-linejoin:round;stroke-opacity:1"
       cx="190.02597"
       cy="201.22493"
       r="1.1000004"
       id="circle2018" />
    <circle
       style="fill:#000000;fill-opacity:0;stroke:#000000;stroke-width:0.0499999;stroke-linecap:round;stroke-linejoin:round;stroke-opacity:1"
       cx="190.02597"
       cy="148.97511"
       r="1.1000004"
       id="circle2020" />
    <circle
       style="fill:#000000;fill-opacity:0;stroke:#000000;stroke-width:0.0499999;stroke-linecap:round;stroke-linejoin:round;stroke-opacity:1"
       cx="170.77608"
       cy="148.97511"
       r="1.1000004"
       id="circle2022" />
    <path
       style="fill:#000000;fill-opacity:0;stroke:#000000;stroke-width:0.0499999;stroke-linecap:round;stroke-linejoin:round;stroke-opacity:1"
       inkscape:connector-curvature="0"
       d="m 168.52589,131.22508 a 0.499999,0.499999 0 0 0 -0.49987,0.49987"
       id="path2024" />
    <path
       style="fill:#000000;fill-opacity:0;stroke:#000000;stroke-width:0.0499999;stroke-linecap:round;stroke-linejoin:round;stroke-opacity:1"
       inkscape:connector-curvature="0"
       d="m 192.77603,131.72495 a 0.499999,0.499999 0 0 0 -0.50012,-0.49987"
       id="path2026" />
    <path
       style="fill:#000000;fill-opacity:0;stroke:#000000;stroke-width:0.0499999;stroke-linecap:round;stroke-linejoin:round;stroke-opacity:1"
       inkscape:connector-curvature="0"
       d="m 192.27591,203.975 a 0.499999,0.499999 0 0 0 0.50012,-0.50013"
       id="path2028" />
    <path
       style="fill:#000000;fill-opacity:0;stroke:#000000;stroke-width:0.0499999;stroke-linecap:round;stroke-linejoin:round;stroke-opacity:1"
       inkscape:connector-curvature="0"
       d="m 168.02602,203.47487 a 0.499999,0.499999 0 0 0 0.49987,0.50013"
       id="path2030" />
    <path
       style="fill:#000000;fill-opacity:0;stroke:#000000;stroke-width:0.0499999;stroke-linecap:round;stroke-linejoin:round;stroke-opacity:1"
       inkscape:connector-curvature="0"
       d="m 168.025,131.72495 v 71.74992"
       id="path2048" />
    <path
       style="fill:#000000;fill-opacity:0;stroke:#000000;stroke-width:0.0499999;stroke-linecap:round;stroke-linejoin:round;stroke-opacity:1"
       inkscape:connector-curvature="0"
       d="m 192.27438,131.22457 h -23.749"
       id="path2050" />
    <path
       style="fill:#000000;fill-opacity:0;stroke:#000000;stroke-width:0.0499999;stroke-linecap:round;stroke-linejoin:round;stroke-opacity:1"
       inkscape:connector-curvature="0"
       d="M 192.77476,203.47487 V 131.72495"
       id="path2052" />
    <path
       style="fill:#000000;fill-opacity:0;stroke:#000000;stroke-width:0.0499999;stroke-linecap:round;stroke-linejoin:round;stroke-opacity:1"
       inkscape:connector-curvature="0"
       d="m 168.52538,203.97271 h 23.749"
       id="path2054" />
    <g
       style="fill:#000000;fill-opacity:0;stroke:#000000;stroke-width:19.68499947;stroke-linecap:round;stroke-linejoin:round;stroke-opacity:1"
       id="g2056"
       transform="matrix(0.00254,0,0,0.00254,90.775982,79.974991)" />
    <g
       style="fill:#000000;fill-opacity:0;stroke:#000000;stroke-width:19.68499947;stroke-linecap:round;stroke-linejoin:round;stroke-opacity:1"
       id="g2058"
       transform="matrix(0.00254,0,0,0.00254,90.775982,79.974991)" />
    <g
       style="fill:#000000;fill-opacity:0;stroke:#000000;stroke-width:19.68499947;stroke-linecap:round;stroke-linejoin:round;stroke-opacity:1"
       id="g2060"
       transform="matrix(0.00254,0,0,0.00254,90.775982,79.974991)" />
    <g
       style="fill:#000000;fill-opacity:0;stroke:#000000;stroke-width:19.68499947;stroke-linecap:round;stroke-linejoin:round;stroke-opacity:1"
       id="g2062"
       transform="matrix(0.00254,0,0,0.00254,90.775982,79.974991)" />
    <g
       style="fill:#000000;fill-opacity:0;stroke:#000000;stroke-width:19.68499947;stroke-linecap:round;stroke-linejoin:round;stroke-opacity:1"
       id="g2064"
       transform="matrix(0.00254,0,0,0.00254,90.775982,79.974991)" />
    <g
       style="fill:#000000;fill-opacity:0;stroke:#000000;stroke-width:19.68499947;stroke-linecap:round;stroke-linejoin:round;stroke-opacity:1"
       id="g2066"
       transform="matrix(0.00254,0,0,0.00254,90.775982,79.974991)" />
    <g
       style="fill:#000000;fill-opacity:0;stroke:#000000;stroke-width:19.68499947;stroke-linecap:round;stroke-linejoin:round;stroke-opacity:1"
       id="g2068"
       transform="matrix(0.00254,0,0,0.00254,90.775982,79.974991)" />
    <g
       style="fill:#000000;fill-opacity:0;stroke:#000000;stroke-width:19.68499947;stroke-linecap:round;stroke-linejoin:round;stroke-opacity:1"
       id="g2070"
       transform="matrix(0.00254,0,0,0.00254,90.775982,79.974991)" />
    <g
       style="fill:#000000;fill-opacity:0;stroke:#000000;stroke-width:19.68499947;stroke-linecap:round;stroke-linejoin:round;stroke-opacity:1"
       id="g2072"
       transform="matrix(0.00254,0,0,0.00254,90.775982,79.974991)" />
    <g
       style="fill:#000000;fill-opacity:0;stroke:#000000;stroke-width:19.68499947;stroke-linecap:round;stroke-linejoin:round;stroke-opacity:1"
       id="g2074"
       transform="matrix(0.00254,0,0,0.00254,90.775982,79.974991)" />
    <g
       style="fill:#000000;fill-opacity:0;stroke:#000000;stroke-width:19.68499947;stroke-linecap:round;stroke-linejoin:round;stroke-opacity:1"
       id="g2076"
       transform="matrix(0.00254,0,0,0.00254,90.775982,79.974991)" />
    <g
       style="fill:#000000;fill-opacity:0;stroke:#000000;stroke-width:19.68499947;stroke-linecap:round;stroke-linejoin:round;stroke-opacity:1"
       id="g2078"
       transform="matrix(0.00254,0,0,0.00254,90.775982,79.974991)" />
  </g>
  <g
     inkscape:groupmode="layer"
     id="layer2"
     inkscape:label="Layer 2">
    <g
       id="g1674"
       transform="matrix(0.00254,0,0,0.00254,-143.97394,-4.5249066)">
      <g
         id="g1381"
         style="fill:#000000;fill-opacity:1;stroke:#000000;stroke-linecap:round;stroke-linejoin:round;stroke-opacity:1" />
      <g
         id="g1383"
         style="fill:#000000;fill-opacity:0;stroke:#000000;stroke-width:-0.0003937;stroke-linecap:round;stroke-linejoin:round;stroke-opacity:1" />
      <g
         id="g1569"
         style="fill:#000000;fill-opacity:0;stroke:#000000;stroke-width:19.68499947;stroke-linecap:round;stroke-linejoin:round;stroke-opacity:1">
        <path
           id="path1385"
           d="M 84448,14370 V 12795"
           inkscape:connector-curvature="0" />
        <path
           id="path1387"
           d="m 81692,14566 h 2559"
           inkscape:connector-curvature="0" />
        <path
           id="path1389"
           d="m 81496,12795 v 1575"
           inkscape:connector-curvature="0" />
        <path
           id="path1391"
           d="M 84251,12598 H 81692"
           inkscape:connector-curvature="0" />
        <path
           id="path1393"
           d="m 84252,14566.9 a 196.85,196.85 0 0 0 196.8,-196.8"
           inkscape:connector-curvature="0" />
        <path
           id="path1395"
           d="m 81496.1,14370.1 a 196.85,196.85 0 0 0 196.8,196.8"
           inkscape:connector-curvature="0" />
        <path
           id="path1397"
           d="m 81692.9,12598.4 a 196.85,196.85 0 0 0 -196.8,196.9"
           inkscape:connector-curvature="0" />
        <path
           id="path1399"
           d="M 84448.8,12795.3 A 196.85,196.85 0 0 0 84252,12598.4"
           inkscape:connector-curvature="0" />
        <circle
           id="circle1401"
           r="433.07101"
           cy="36023.602"
           cx="62598.398" />
        <circle
           id="circle1403"
           r="433.07101"
           cy="12401.6"
           cx="69685" />
        <circle
           id="circle1405"
           r="433.07101"
           cy="12401.6"
           cx="97933.102" />
        <circle
           id="circle1407"
           r="433.07101"
           cy="36023.602"
           cx="105118" />
        <path
           id="path1409"
           d="m 102952,11023 h 5315"
           inkscape:connector-curvature="0" />
        <path
           id="path1411"
           d="M 64763,11023 H 59448"
           inkscape:connector-curvature="0" />
        <path
           id="path1413"
           d="M 67519,15748 V 11023"
           inkscape:connector-curvature="0" />
        <path
           id="path1415"
           d="m 64960,15944 h 2362"
           inkscape:connector-curvature="0" />
        <path
           id="path1417"
           d="m 64763,11023 v 4725"
           inkscape:connector-curvature="0" />
        <path
           id="path1419"
           d="m 100196,11023 v 4725"
           inkscape:connector-curvature="0" />
        <path
           id="path1421"
           d="M 102952,15748 V 11023"
           inkscape:connector-curvature="0" />
        <path
           id="path1423"
           d="m 100393,15944 h 2362"
           inkscape:connector-curvature="0" />
        <path
           id="path1425"
           d="m 102756,15944.9 a 196.85,196.85 0 0 0 197,-196.9"
           inkscape:connector-curvature="0" />
        <path
           id="path1427"
           d="m 100197,15748 a 196.85,196.85 0 0 0 197,196.9"
           inkscape:connector-curvature="0" />
        <path
           id="path1429"
           d="m 67322.8,15944.9 a 196.85,196.85 0 0 0 196.9,-196.9"
           inkscape:connector-curvature="0" />
        <path
           id="path1431"
           d="m 64763.8,15748 a 196.85,196.85 0 0 0 196.8,196.9"
           inkscape:connector-curvature="0" />
        <path
           id="path1433"
           d="m 94094,40944 v 197"
           inkscape:connector-curvature="0" />
        <path
           id="path1435"
           d="m 73622,40944 v 197"
           inkscape:connector-curvature="0" />
        <path
           id="path1437"
           d="m 101181,42519 v 591"
           inkscape:connector-curvature="0" />
        <path
           id="path1439"
           d="M 93503,40354 H 74212"
           inkscape:connector-curvature="0" />
        <path
           id="path1441"
           d="m 94881,41929 h 5709"
           inkscape:connector-curvature="0" />
        <path
           id="path1443"
           d="m 108267,43897 h -6299"
           inkscape:connector-curvature="0" />
        <path
           id="path1445"
           d="m 101181,42519.7 a 590.551,590.551 0 0 0 -590,-590.6"
           inkscape:connector-curvature="0" />
        <path
           id="path1447"
           d="m 101181,43110.2 a 787.402,787.402 0 0 0 788,787.4"
           inkscape:connector-curvature="0" />
        <path
           id="path1449"
           d="m 94094.5,40944.9 a 590.551,590.551 0 0 0 -590.6,-590.6"
           inkscape:connector-curvature="0" />
        <path
           id="path1451"
           d="m 94094.5,41141.7 a 787.402,787.402 0 0 0 787.4,787.4"
           inkscape:connector-curvature="0" />
        <path
           id="path1453"
           d="M 65748,43897 H 59448"
           inkscape:connector-curvature="0" />
        <path
           id="path1455"
           d="m 66535,42519 v 591"
           inkscape:connector-curvature="0" />
        <path
           id="path1457"
           d="M 72834,41929 H 67125"
           inkscape:connector-curvature="0" />
        <path
           id="path1459"
           d="m 67126,41929.1 a 590.551,590.551 0 0 0 -590.6,590.6"
           inkscape:connector-curvature="0" />
        <path
           id="path1461"
           d="m 74212.6,40354.3 a 590.551,590.551 0 0 0 -590.6,590.6"
           inkscape:connector-curvature="0" />
        <path
           id="path1463"
           d="m 72834.6,41929.1 a 787.402,787.402 0 0 0 787.4,-787.4"
           inkscape:connector-curvature="0" />
        <path
           id="path1465"
           d="m 65748,43897.6 a 787.402,787.402 0 0 0 787.4,-787.4"
           inkscape:connector-curvature="0" />
        <path
           id="path1467"
           d="m 108268,43897.6 a 787.402,787.402 0 0 0 787,-787.4"
           inkscape:connector-curvature="0" />
        <path
           id="path1469"
           d="M 109055,11811 V 43110"
           inkscape:connector-curvature="0" />
        <path
           id="path1471"
           d="m 109055,11811 a 787.402,787.402 0 0 0 -787,-787.4"
           inkscape:connector-curvature="0" />
        <path
           id="path1473"
           d="m 58661.4,43110.2 a 787.402,787.402 0 0 0 787.4,787.4"
           inkscape:connector-curvature="0" />
        <path
           id="path1475"
           d="M 58661,11811 V 43110"
           inkscape:connector-curvature="0" />
        <path
           id="path1477"
           d="m 59448.8,11023.6 a 787.402,787.402 0 0 0 -787.4,787.4"
           inkscape:connector-curvature="0" />
        <path
           id="path1479"
           d="m 67519,11023 h 32677"
           inkscape:connector-curvature="0" />
        <g
           id="g1481" />
        <g
           id="g1483" />
        <g
           id="g1485" />
        <g
           id="g1487" />
        <g
           id="g1489" />
        <g
           id="g1491" />
        <g
           id="g1493" />
        <g
           id="g1495" />
        <g
           id="g1497" />
        <g
           id="g1499" />
        <g
           id="g1501" />
        <g
           id="g1503" />
        <g
           id="g1505" />
        <g
           id="g1507" />
        <g
           id="g1509" />
        <g
           id="g1511" />
        <g
           id="g1513" />
        <g
           id="g1515" />
        <g
           id="g1517" />
        <g
           id="g1519" />
        <g
           id="g1521" />
        <g
           id="g1523" />
        <g
           id="g1525" />
        <g
           id="g1527" />
        <g
           id="g1529" />
        <g
           id="g1531" />
        <g
           id="g1533" />
        <g
           id="g1535" />
        <g
           id="g1537" />
        <g
           id="g1539" />
        <g
           id="g1541" />
        <g
           id="g1543" />
        <g
           id="g1545" />
        <g
           id="g1547" />
        <g
           id="g1549" />
        <g
           id="g1551" />
        <g
           id="g1553" />
        <g
           id="g1555" />
        <g
           id="g1557" />
        <g
           id="g1559" />
        <g
           id="g1561" />
        <g
           id="g1563" />
        <g
           id="g1565" />
        <g
           id="g1567" />
      </g>
    </g>
    <g
       transform="matrix(0.00254,0,0,0.00254,-143.97394,83.475093)"
       id="g1866">
      <g
         style="fill:#000000;fill-opacity:1;stroke:#000000;stroke-linecap:round;stroke-linejoin:round;stroke-opacity:1"
         id="g1676" />
      <g
         style="fill:#000000;fill-opacity:0;stroke:#000000;stroke-width:-0.0003937;stroke-linecap:round;stroke-linejoin:round;stroke-opacity:1"
         id="g1678" />
      <g
         style="fill:#000000;fill-opacity:0;stroke:#000000;stroke-width:19.68499947;stroke-linecap:round;stroke-linejoin:round;stroke-opacity:1"
         id="g1864">
        <path
           inkscape:connector-curvature="0"
           d="M 84448,14370 V 12795"
           id="path1680" />
        <path
           inkscape:connector-curvature="0"
           d="m 81692,14566 h 2559"
           id="path1682" />
        <path
           inkscape:connector-curvature="0"
           d="m 81496,12795 v 1575"
           id="path1684" />
        <path
           inkscape:connector-curvature="0"
           d="M 84251,12598 H 81692"
           id="path1686" />
        <path
           inkscape:connector-curvature="0"
           d="m 84252,14566.9 a 196.85,196.85 0 0 0 196.8,-196.8"
           id="path1688" />
        <path
           inkscape:connector-curvature="0"
           d="m 81496.1,14370.1 a 196.85,196.85 0 0 0 196.8,196.8"
           id="path1690" />
        <path
           inkscape:connector-curvature="0"
           d="m 81692.9,12598.4 a 196.85,196.85 0 0 0 -196.8,196.9"
           id="path1692" />
        <path
           inkscape:connector-curvature="0"
           d="M 84448.8,12795.3 A 196.85,196.85 0 0 0 84252,12598.4"
           id="path1694" />
        <circle
           cx="62598.398"
           cy="36023.602"
           r="433.07101"
           id="circle1696" />
        <circle
           cx="69685"
           cy="12401.6"
           r="433.07101"
           id="circle1698" />
        <circle
           cx="97933.102"
           cy="12401.6"
           r="433.07101"
           id="circle1700" />
        <circle
           cx="105118"
           cy="36023.602"
           r="433.07101"
           id="circle1702" />
        <path
           inkscape:connector-curvature="0"
           d="m 102952,11023 h 5315"
           id="path1704" />
        <path
           inkscape:connector-curvature="0"
           d="M 64763,11023 H 59448"
           id="path1706" />
        <path
           inkscape:connector-curvature="0"
           d="M 67519,15748 V 11023"
           id="path1708" />
        <path
           inkscape:connector-curvature="0"
           d="m 64960,15944 h 2362"
           id="path1710" />
        <path
           inkscape:connector-curvature="0"
           d="m 64763,11023 v 4725"
           id="path1712" />
        <path
           inkscape:connector-curvature="0"
           d="m 100196,11023 v 4725"
           id="path1714" />
        <path
           inkscape:connector-curvature="0"
           d="M 102952,15748 V 11023"
           id="path1716" />
        <path
           inkscape:connector-curvature="0"
           d="m 100393,15944 h 2362"
           id="path1718" />
        <path
           inkscape:connector-curvature="0"
           d="m 102756,15944.9 a 196.85,196.85 0 0 0 197,-196.9"
           id="path1720" />
        <path
           inkscape:connector-curvature="0"
           d="m 100197,15748 a 196.85,196.85 0 0 0 197,196.9"
           id="path1722" />
        <path
           inkscape:connector-curvature="0"
           d="m 67322.8,15944.9 a 196.85,196.85 0 0 0 196.9,-196.9"
           id="path1724" />
        <path
           inkscape:connector-curvature="0"
           d="m 64763.8,15748 a 196.85,196.85 0 0 0 196.8,196.9"
           id="path1726" />
        <path
           inkscape:connector-curvature="0"
           d="m 94094,40944 v 197"
           id="path1728" />
        <path
           inkscape:connector-curvature="0"
           d="m 73622,40944 v 197"
           id="path1730" />
        <path
           inkscape:connector-curvature="0"
           d="m 101181,42519 v 591"
           id="path1732" />
        <path
           inkscape:connector-curvature="0"
           d="M 93503,40354 H 74212"
           id="path1734" />
        <path
           inkscape:connector-curvature="0"
           d="m 94881,41929 h 5709"
           id="path1736" />
        <path
           inkscape:connector-curvature="0"
           d="m 108267,43897 h -6299"
           id="path1738" />
        <path
           inkscape:connector-curvature="0"
           d="m 101181,42519.7 a 590.551,590.551 0 0 0 -590,-590.6"
           id="path1740" />
        <path
           inkscape:connector-curvature="0"
           d="m 101181,43110.2 a 787.402,787.402 0 0 0 788,787.4"
           id="path1742" />
        <path
           inkscape:connector-curvature="0"
           d="m 94094.5,40944.9 a 590.551,590.551 0 0 0 -590.6,-590.6"
           id="path1744" />
        <path
           inkscape:connector-curvature="0"
           d="m 94094.5,41141.7 a 787.402,787.402 0 0 0 787.4,787.4"
           id="path1746" />
        <path
           inkscape:connector-curvature="0"
           d="M 65748,43897 H 59448"
           id="path1748" />
        <path
           inkscape:connector-curvature="0"
           d="m 66535,42519 v 591"
           id="path1750" />
        <path
           inkscape:connector-curvature="0"
           d="M 72834,41929 H 67125"
           id="path1752" />
        <path
           inkscape:connector-curvature="0"
           d="m 67126,41929.1 a 590.551,590.551 0 0 0 -590.6,590.6"
           id="path1754" />
        <path
           inkscape:connector-curvature="0"
           d="m 74212.6,40354.3 a 590.551,590.551 0 0 0 -590.6,590.6"
           id="path1756" />
        <path
           inkscape:connector-curvature="0"
           d="m 72834.6,41929.1 a 787.402,787.402 0 0 0 787.4,-787.4"
           id="path1758" />
        <path
           inkscape:connector-curvature="0"
           d="m 65748,43897.6 a 787.402,787.402 0 0 0 787.4,-787.4"
           id="path1760" />
        <path
           inkscape:connector-curvature="0"
           d="m 108268,43897.6 a 787.402,787.402 0 0 0 787,-787.4"
           id="path1762" />
        <path
           inkscape:connector-curvature="0"
           d="M 109055,11811 V 43110"
           id="path1764" />
        <path
           inkscape:connector-curvature="0"
           d="m 109055,11811 a 787.402,787.402 0 0 0 -787,-787.4"
           id="path1766" />
        <path
           inkscape:connector-curvature="0"
           d="m 58661.4,43110.2 a 787.402,787.402 0 0 0 787.4,787.4"
           id="path1768" />
        <path
           inkscape:connector-curvature="0"
           d="M 58661,11811 V 43110"
           id="path1770" />
        <path
           inkscape:connector-curvature="0"
           d="m 59448.8,11023.6 a 787.402,787.402 0 0 0 -787.4,787.4"
           id="path1772" />
        <path
           inkscape:connector-curvature="0"
           d="m 67519,11023 h 32677"
           id="path1774" />
        <g
           id="g1776" />
        <g
           id="g1778" />
        <g
           id="g1780" />
        <g
           id="g1782" />
        <g
           id="g1784" />
        <g
           id="g1786" />
        <g
           id="g1788" />
        <g
           id="g1790" />
        <g
           id="g1792" />
        <g
           id="g1794" />
        <g
           id="g1796" />
        <g
           id="g1798" />
        <g
           id="g1800" />
        <g
           id="g1802" />
        <g
           id="g1804" />
        <g
           id="g1806" />
        <g
           id="g1808" />
        <g
           id="g1810" />
        <g
           id="g1812" />
        <g
           id="g1814" />
        <g
           id="g1816" />
        <g
           id="g1818" />
        <g
           id="g1820" />
        <g
           id="g1822" />
        <g
           id="g1824" />
        <g
           id="g1826" />
        <g
           id="g1828" />
        <g
           id="g1830" />
        <g
           id="g1832" />
        <g
           id="g1834" />
        <g
           id="g1836" />
        <g
           id="g1838" />
        <g
           id="g1840" />
        <g
           id="g1842" />
        <g
           id="g1844" />
        <g
           id="g1846" />
        <g
           id="g1848" />
        <g
           id="g1850" />
        <g
           id="g1852" />
        <g
           id="g1854" />
        <g
           id="g1856" />
        <g
           id="g1858" />
        <g
           id="g1860" />
        <g
           id="g1862" />
      </g>
    </g>
  </g>
</svg>
