M48
; DRILL file {KiCad (5.1.0-0)} date 2019 June 09, Sunday 21:48:00
; FORMAT={-:-/ absolute / inch / decimal}
; #@! TF.CreationDate,2019-06-09T21:48:00+02:00
; #@! TF.GenerationSoftware,Kicad,Pcbnew,(5.1.0-0)
FMAT,2
INCH
T1C0.0157
T2C0.0374
T3C0.0748
T4C0.1181
T5C0.1339
T6C0.1575
%
G90
G05
T1
X6.0433Y-3.4646
X6.2008Y-1.2205
X6.5748Y-1.2697
X6.5748Y-1.5059
X6.6929Y-1.3386
X7.687Y-1.4665
X7.6969Y-1.4272
X7.7165Y-1.5354
X7.7264Y-1.2992
X7.7264Y-1.3386
X7.874Y-1.4173
X8.3366Y-1.3287
X8.3366Y-1.378
X8.6024Y-1.5256
X8.8917Y-1.4412
X8.9154Y-1.4019
X9.124Y-1.5256
X9.2815Y-1.4764
X9.3209Y-1.4469
X9.8498Y-1.3878
X9.9311Y-1.3484
X10.1083Y-1.5157
X10.5315Y-1.2205
X10.6791Y-3.4449
T2
X6.6142Y-1.1634
X6.6142Y-1.439
X10.1575Y-1.1634
X10.1575Y-1.439
T3
X10.7283Y-2.3031
X6.752Y-2.3031
X10.2953Y-3.9961
X10.7283Y-3.9961
X7.4606Y-2.3031
X7.8937Y-2.3031
X9.5866Y-3.7992
X10.0197Y-3.7992
X8.878Y-2.3031
X9.311Y-2.3031
X8.878Y-3.6417
X9.311Y-3.6417
X10.2953Y-2.3031
X8.1693Y-1.6339
X7.8937Y-2.9724
X8.1693Y-3.6417
X8.6024Y-3.6417
X8.878Y-2.9724
X9.311Y-2.9724
X8.6024Y-1.6339
X7.4606Y-2.9724
X7.185Y-2.3031
X10.2953Y-2.9724
X10.7283Y-2.9724
X6.752Y-3.7992
X9.5866Y-1.6339
X10.0197Y-1.6339
X10.2953Y-1.6339
X10.7283Y-1.6339
X6.0433Y-3.9961
X6.4764Y-3.9961
X8.878Y-1.6339
X9.311Y-1.6339
X7.4606Y-1.6339
X7.8937Y-1.6339
X6.0433Y-2.3031
X6.4764Y-2.3031
X7.8937Y-3.6417
X6.4764Y-1.6339
X6.752Y-1.6339
X8.1693Y-2.3031
X8.6024Y-2.3031
X9.5866Y-2.9724
X10.0197Y-2.9724
X7.4606Y-3.6417
X6.0433Y-1.6339
X6.752Y-2.9724
X7.185Y-2.9724
X7.185Y-1.6339
X6.0433Y-2.9724
X6.4764Y-2.9724
X9.5866Y-2.3031
X10.0197Y-2.3031
X7.185Y-3.7992
X8.1693Y-2.9724
X8.6024Y-2.9724
T4
X8.8976Y-3.1181
X9.0945Y-3.2047
X10.315Y-4.1417
X10.5118Y-4.2283
X6.2598Y-1.8661
X6.7717Y-3.1181
X6.9685Y-3.2047
X10.315Y-1.7795
X10.5118Y-1.8661
X6.9685Y-4.0315
X8.189Y-3.1181
X8.3858Y-3.2047
X10.315Y-2.4488
X10.5118Y-2.5354
X6.9685Y-1.8661
X9.6063Y-1.7795
X9.8031Y-1.8661
X6.7717Y-3.9449
X8.8976Y-2.4488
X9.0945Y-2.5354
X6.063Y-1.7795
X7.4803Y-2.4488
X6.7717Y-1.7795
X7.6772Y-2.5354
X8.189Y-1.7795
X8.3858Y-1.8661
X6.063Y-4.1417
X6.2598Y-4.2283
X8.189Y-2.4488
X8.3858Y-2.5354
X7.4803Y-3.1181
X7.6772Y-3.2047
X9.6063Y-3.1181
X9.8031Y-3.2047
X6.063Y-3.1181
X6.2598Y-3.2047
X8.8976Y-1.7795
X9.0945Y-1.8661
X7.6772Y-1.8661
X9.8031Y-2.5354
X6.063Y-2.4488
X6.2598Y-2.5354
X8.3858Y-3.874
X8.8976Y-3.7874
X9.0945Y-3.874
X6.7717Y-2.4488
X6.9685Y-2.5354
X9.6063Y-3.9449
X9.8031Y-4.0315
X10.315Y-3.1181
X7.4803Y-1.7795
X8.189Y-3.7874
X10.5118Y-3.2047
X7.4803Y-3.7874
X9.6063Y-2.4488
X7.6772Y-3.874
T5
X9.0945Y-3.6417
X6.9685Y-2.3031
X9.8031Y-3.7992
X10.5118Y-2.3031
X10.5118Y-2.9724
X10.5118Y-3.9961
X6.2598Y-1.6339
X9.0945Y-2.9724
X9.0945Y-2.3031
X7.6772Y-2.3031
X8.3858Y-1.6339
X7.6772Y-2.9724
X6.9685Y-2.9724
X6.9685Y-1.6339
X9.8031Y-1.6339
X7.6772Y-1.6339
X10.5118Y-1.6339
X8.3858Y-2.3031
X6.2598Y-2.9724
X6.2598Y-2.3031
X9.0945Y-1.6339
X9.8031Y-2.3031
X8.3858Y-2.9724
X6.2598Y-3.9961
X9.8031Y-2.9724
X8.3858Y-3.6417
X7.6772Y-3.6417
X6.9685Y-3.7992
T6
X10.5118Y-3.6024
X9.7933Y-1.2402
X6.2598Y-3.6024
X6.9685Y-1.2402
T0
M30
