<?xml version="1.0" standalone="no"?>
 <!DOCTYPE svg PUBLIC "-//W3C//DTD SVG 1.1//EN" 
 "http://www.w3.org/Graphics/SVG/1.1/DTD/svg11.dtd"> 
<svg xmlns="http://www.w3.org/2000/svg" version="1.1" 
    width="29.7002cm" height="21.0007cm" viewBox="0 0 116930 82680 ">
<title>SVG Picture created as ssol56-pcb-Edge_Cuts.svg date 2019/06/09 20:11:10 </title>
  <desc>Picture generated by PCBNEW </desc>
<g style="fill:#000000; fill-opacity:1;stroke:#000000; stroke-opacity:1;
stroke-linecap:round; stroke-linejoin:round; "
 transform="translate(0 0) scale(1 1)">
</g>
<g style="fill:#000000; fill-opacity:0.0; 
stroke:#000000; stroke-width:-0.000393701; stroke-opacity:1; 
stroke-linecap:round; stroke-linejoin:round;">
</g>
<g style="fill:#000000; fill-opacity:0.0; 
stroke:#000000; stroke-width:19.685; stroke-opacity:1; 
stroke-linecap:round; stroke-linejoin:round;">
<path d="M84448 14370
L84448 12795
" />
<path d="M81692 14566
L84251 14566
" />
<path d="M81496 12795
L81496 14370
" />
<path d="M84251 12598
L81692 12598
" />
<path d="M84252 14566.9 A196.85 196.85 0.0 0 0 84448.8 14370.1 " />
<path d="M81496.1 14370.1 A196.85 196.85 0.0 0 0 81692.9 14566.9 " />
<path d="M81692.9 12598.4 A196.85 196.85 0.0 0 0 81496.1 12795.3 " />
<path d="M84448.8 12795.3 A196.85 196.85 0.0 0 0 84252 12598.4 " />
<circle cx="62598.4" cy="36023.6" r="433.071" /> 
<circle cx="69685" cy="12401.6" r="433.071" /> 
<circle cx="97933.1" cy="12401.6" r="433.071" /> 
<circle cx="105118" cy="36023.6" r="433.071" /> 
<path d="M102952 11023
L108267 11023
" />
<path d="M64763 11023
L59448 11023
" />
<path d="M67519 15748
L67519 11023
" />
<path d="M64960 15944
L67322 15944
" />
<path d="M64763 11023
L64763 15748
" />
<path d="M100196 11023
L100196 15748
" />
<path d="M102952 15748
L102952 11023
" />
<path d="M100393 15944
L102755 15944
" />
<path d="M102756 15944.9 A196.85 196.85 0.0 0 0 102953 15748 " />
<path d="M100197 15748 A196.85 196.85 0.0 0 0 100394 15944.9 " />
<path d="M67322.8 15944.9 A196.85 196.85 0.0 0 0 67519.7 15748 " />
<path d="M64763.8 15748 A196.85 196.85 0.0 0 0 64960.6 15944.9 " />
<path d="M94094 40944
L94094 41141
" />
<path d="M73622 40944
L73622 41141
" />
<path d="M101181 42519
L101181 43110
" />
<path d="M93503 40354
L74212 40354
" />
<path d="M94881 41929
L100590 41929
" />
<path d="M108267 43897
L101968 43897
" />
<path d="M101181 42519.7 A590.551 590.551 0.0 0 0 100591 41929.1 " />
<path d="M101181 43110.2 A787.402 787.402 0.0 0 0 101969 43897.6 " />
<path d="M94094.5 40944.9 A590.551 590.551 0.0 0 0 93503.9 40354.3 " />
<path d="M94094.5 41141.7 A787.402 787.402 0.0 0 0 94881.9 41929.1 " />
<path d="M65748 43897
L59448 43897
" />
<path d="M66535 42519
L66535 43110
" />
<path d="M72834 41929
L67125 41929
" />
<path d="M67126 41929.1 A590.551 590.551 0.0 0 0 66535.4 42519.7 " />
<path d="M74212.6 40354.3 A590.551 590.551 0.0 0 0 73622 40944.9 " />
<path d="M72834.6 41929.1 A787.402 787.402 0.0 0 0 73622 41141.7 " />
<path d="M65748 43897.6 A787.402 787.402 0.0 0 0 66535.4 43110.2 " />
<path d="M108268 43897.6 A787.402 787.402 0.0 0 0 109055 43110.2 " />
<path d="M109055 11811
L109055 43110
" />
<path d="M109055 11811 A787.402 787.402 0.0 0 0 108268 11023.6 " />
<path d="M58661.4 43110.2 A787.402 787.402 0.0 0 0 59448.8 43897.6 " />
<path d="M58661 11811
L58661 43110
" />
<path d="M59448.8 11023.6 A787.402 787.402 0.0 0 0 58661.4 11811 " />
<path d="M67519 11023
L100196 11023
" />
<g >
</g>
<g >
</g>
<g >
</g>
<g >
</g>
<g >
</g>
<g >
</g>
<g >
</g>
<g >
</g>
<g >
</g>
<g >
</g>
<g >
</g>
<g >
</g>
<g >
</g>
<g >
</g>
<g >
</g>
<g >
</g>
<g >
</g>
<g >
</g>
<g >
</g>
<g >
</g>
<g >
</g>
<g >
</g>
<g >
</g>
<g >
</g>
<g >
</g>
<g >
</g>
<g >
</g>
<g >
</g>
<g >
</g>
<g >
</g>
<g >
</g>
<g >
</g>
<g >
</g>
<g >
</g>
<g >
</g>
<g >
</g>
<g >
</g>
<g >
</g>
<g >
</g>
<g >
</g>
<g >
</g>
<g >
</g>
<g >
</g>
<g >
</g>
</g> 
</svg>
