G04 #@! TF.GenerationSoftware,KiCad,Pcbnew,(5.1.0-0)*
G04 #@! TF.CreationDate,2019-06-09T21:39:38+02:00*
G04 #@! TF.ProjectId,ssol56-pcb,73736f6c-3536-42d7-9063-622e6b696361,rev?*
G04 #@! TF.SameCoordinates,Original*
G04 #@! TF.FileFunction,Soldermask,Top*
G04 #@! TF.FilePolarity,Negative*
%FSLAX46Y46*%
G04 Gerber Fmt 4.6, Leading zero omitted, Abs format (unit mm)*
G04 Created by KiCad (PCBNEW (5.1.0-0)) date 2019-06-09 21:39:38*
%MOMM*%
%LPD*%
G04 APERTURE LIST*
%ADD10C,0.250000*%
%ADD11C,0.100000*%
G04 APERTURE END LIST*
D10*
X207714285Y-30654761D02*
X208000000Y-30702380D01*
X208476190Y-30702380D01*
X208666666Y-30654761D01*
X208761904Y-30607142D01*
X208857142Y-30511904D01*
X208857142Y-30416666D01*
X208761904Y-30321428D01*
X208666666Y-30273809D01*
X208476190Y-30226190D01*
X208095238Y-30178571D01*
X207904761Y-30130952D01*
X207809523Y-30083333D01*
X207714285Y-29988095D01*
X207714285Y-29892857D01*
X207809523Y-29797619D01*
X207904761Y-29750000D01*
X208095238Y-29702380D01*
X208571428Y-29702380D01*
X208857142Y-29750000D01*
X209619047Y-30654761D02*
X209904761Y-30702380D01*
X210380952Y-30702380D01*
X210571428Y-30654761D01*
X210666666Y-30607142D01*
X210761904Y-30511904D01*
X210761904Y-30416666D01*
X210666666Y-30321428D01*
X210571428Y-30273809D01*
X210380952Y-30226190D01*
X210000000Y-30178571D01*
X209809523Y-30130952D01*
X209714285Y-30083333D01*
X209619047Y-29988095D01*
X209619047Y-29892857D01*
X209714285Y-29797619D01*
X209809523Y-29750000D01*
X210000000Y-29702380D01*
X210476190Y-29702380D01*
X210761904Y-29750000D01*
X212000000Y-29702380D02*
X212380952Y-29702380D01*
X212571428Y-29750000D01*
X212761904Y-29845238D01*
X212857142Y-30035714D01*
X212857142Y-30369047D01*
X212761904Y-30559523D01*
X212571428Y-30654761D01*
X212380952Y-30702380D01*
X212000000Y-30702380D01*
X211809523Y-30654761D01*
X211619047Y-30559523D01*
X211523809Y-30369047D01*
X211523809Y-30035714D01*
X211619047Y-29845238D01*
X211809523Y-29750000D01*
X212000000Y-29702380D01*
X214666666Y-30702380D02*
X213714285Y-30702380D01*
X213714285Y-29702380D01*
X216285714Y-29702380D02*
X215333333Y-29702380D01*
X215238095Y-30178571D01*
X215333333Y-30130952D01*
X215523809Y-30083333D01*
X216000000Y-30083333D01*
X216190476Y-30130952D01*
X216285714Y-30178571D01*
X216380952Y-30273809D01*
X216380952Y-30511904D01*
X216285714Y-30607142D01*
X216190476Y-30654761D01*
X216000000Y-30702380D01*
X215523809Y-30702380D01*
X215333333Y-30654761D01*
X215238095Y-30607142D01*
X218095238Y-29702380D02*
X217714285Y-29702380D01*
X217523809Y-29750000D01*
X217428571Y-29797619D01*
X217238095Y-29940476D01*
X217142857Y-30130952D01*
X217142857Y-30511904D01*
X217238095Y-30607142D01*
X217333333Y-30654761D01*
X217523809Y-30702380D01*
X217904761Y-30702380D01*
X218095238Y-30654761D01*
X218190476Y-30607142D01*
X218285714Y-30511904D01*
X218285714Y-30273809D01*
X218190476Y-30178571D01*
X218095238Y-30130952D01*
X217904761Y-30083333D01*
X217523809Y-30083333D01*
X217333333Y-30130952D01*
X217238095Y-30178571D01*
X217142857Y-30273809D01*
D11*
G36*
X267224549Y-90371116D02*
G01*
X267335734Y-90393232D01*
X267545203Y-90479997D01*
X267733720Y-90605960D01*
X267894040Y-90766280D01*
X268020003Y-90954797D01*
X268106768Y-91164266D01*
X268151000Y-91386636D01*
X268151000Y-91613364D01*
X268106768Y-91835734D01*
X268020003Y-92045203D01*
X267894040Y-92233720D01*
X267733720Y-92394040D01*
X267545203Y-92520003D01*
X267335734Y-92606768D01*
X267224549Y-92628884D01*
X267113365Y-92651000D01*
X266886635Y-92651000D01*
X266775451Y-92628884D01*
X266664266Y-92606768D01*
X266454797Y-92520003D01*
X266266280Y-92394040D01*
X266105960Y-92233720D01*
X265979997Y-92045203D01*
X265893232Y-91835734D01*
X265849000Y-91613364D01*
X265849000Y-91386636D01*
X265893232Y-91164266D01*
X265979997Y-90954797D01*
X266105960Y-90766280D01*
X266266280Y-90605960D01*
X266454797Y-90479997D01*
X266664266Y-90393232D01*
X266775451Y-90371116D01*
X266886635Y-90349000D01*
X267113365Y-90349000D01*
X267224549Y-90371116D01*
X267224549Y-90371116D01*
G37*
G36*
X159224549Y-90371116D02*
G01*
X159335734Y-90393232D01*
X159545203Y-90479997D01*
X159733720Y-90605960D01*
X159894040Y-90766280D01*
X160020003Y-90954797D01*
X160106768Y-91164266D01*
X160151000Y-91386636D01*
X160151000Y-91613364D01*
X160106768Y-91835734D01*
X160020003Y-92045203D01*
X159894040Y-92233720D01*
X159733720Y-92394040D01*
X159545203Y-92520003D01*
X159335734Y-92606768D01*
X159224549Y-92628884D01*
X159113365Y-92651000D01*
X158886635Y-92651000D01*
X158775451Y-92628884D01*
X158664266Y-92606768D01*
X158454797Y-92520003D01*
X158266280Y-92394040D01*
X158105960Y-92233720D01*
X157979997Y-92045203D01*
X157893232Y-91835734D01*
X157849000Y-91613364D01*
X157849000Y-91386636D01*
X157893232Y-91164266D01*
X157979997Y-90954797D01*
X158105960Y-90766280D01*
X158266280Y-90605960D01*
X158454797Y-90479997D01*
X158664266Y-90393232D01*
X158775451Y-90371116D01*
X158886635Y-90349000D01*
X159113365Y-90349000D01*
X159224549Y-90371116D01*
X159224549Y-90371116D01*
G37*
G36*
X248974549Y-30371116D02*
G01*
X249085734Y-30393232D01*
X249295203Y-30479997D01*
X249483720Y-30605960D01*
X249644040Y-30766280D01*
X249770003Y-30954797D01*
X249856768Y-31164266D01*
X249901000Y-31386636D01*
X249901000Y-31613364D01*
X249856768Y-31835734D01*
X249770003Y-32045203D01*
X249644040Y-32233720D01*
X249483720Y-32394040D01*
X249295203Y-32520003D01*
X249085734Y-32606768D01*
X248974549Y-32628884D01*
X248863365Y-32651000D01*
X248636635Y-32651000D01*
X248525451Y-32628884D01*
X248414266Y-32606768D01*
X248204797Y-32520003D01*
X248016280Y-32394040D01*
X247855960Y-32233720D01*
X247729997Y-32045203D01*
X247643232Y-31835734D01*
X247599000Y-31613364D01*
X247599000Y-31386636D01*
X247643232Y-31164266D01*
X247729997Y-30954797D01*
X247855960Y-30766280D01*
X248016280Y-30605960D01*
X248204797Y-30479997D01*
X248414266Y-30393232D01*
X248525451Y-30371116D01*
X248636635Y-30349000D01*
X248863365Y-30349000D01*
X248974549Y-30371116D01*
X248974549Y-30371116D01*
G37*
G36*
X177224549Y-30371116D02*
G01*
X177335734Y-30393232D01*
X177545203Y-30479997D01*
X177733720Y-30605960D01*
X177894040Y-30766280D01*
X178020003Y-30954797D01*
X178106768Y-31164266D01*
X178151000Y-31386636D01*
X178151000Y-31613364D01*
X178106768Y-31835734D01*
X178020003Y-32045203D01*
X177894040Y-32233720D01*
X177733720Y-32394040D01*
X177545203Y-32520003D01*
X177335734Y-32606768D01*
X177224549Y-32628884D01*
X177113365Y-32651000D01*
X176886635Y-32651000D01*
X176775451Y-32628884D01*
X176664266Y-32606768D01*
X176454797Y-32520003D01*
X176266280Y-32394040D01*
X176105960Y-32233720D01*
X175979997Y-32045203D01*
X175893232Y-31835734D01*
X175849000Y-31613364D01*
X175849000Y-31386636D01*
X175893232Y-31164266D01*
X175979997Y-30954797D01*
X176105960Y-30766280D01*
X176266280Y-30605960D01*
X176454797Y-30479997D01*
X176664266Y-30393232D01*
X176775451Y-30371116D01*
X176886635Y-30349000D01*
X177113365Y-30349000D01*
X177224549Y-30371116D01*
X177224549Y-30371116D01*
G37*
M02*
