G04 #@! TF.GenerationSoftware,KiCad,Pcbnew,(5.1.0-0)*
G04 #@! TF.CreationDate,2019-06-09T21:39:38+02:00*
G04 #@! TF.ProjectId,ssol56-pcb,73736f6c-3536-42d7-9063-622e6b696361,rev?*
G04 #@! TF.SameCoordinates,Original*
G04 #@! TF.FileFunction,Profile,NP*
%FSLAX46Y46*%
G04 Gerber Fmt 4.6, Leading zero omitted, Abs format (unit mm)*
G04 Created by KiCad (PCBNEW (5.1.0-0)) date 2019-06-09 21:39:38*
%MOMM*%
%LPD*%
G04 APERTURE LIST*
%ADD10C,0.050000*%
%ADD11C,0.150000*%
G04 APERTURE END LIST*
D10*
X239000000Y-104000000D02*
X239000000Y-104500000D01*
X187000000Y-104000000D02*
X187000000Y-104500000D01*
X257000000Y-108000000D02*
X257000000Y-109500000D01*
X237500000Y-102500000D02*
X188500000Y-102500000D01*
X241000000Y-106500000D02*
X255500000Y-106500000D01*
X275000000Y-111500000D02*
X259000000Y-111500000D01*
X255500000Y-106500000D02*
G75*
G02X257000000Y-108000000I0J-1500000D01*
G01*
X259000000Y-111500000D02*
G75*
G02X257000000Y-109500000I0J2000000D01*
G01*
X237500000Y-102500000D02*
G75*
G02X239000000Y-104000000I0J-1500000D01*
G01*
X241000000Y-106500000D02*
G75*
G02X239000000Y-104500000I0J2000000D01*
G01*
X167000000Y-111500000D02*
X151000000Y-111500000D01*
X169000000Y-108000000D02*
X169000000Y-109500000D01*
X185000000Y-106500000D02*
X170500000Y-106500000D01*
X169000000Y-108000000D02*
G75*
G02X170500000Y-106500000I1500000J0D01*
G01*
X187000000Y-104000000D02*
G75*
G02X188500000Y-102500000I1500000J0D01*
G01*
X187000000Y-104500000D02*
G75*
G02X185000000Y-106500000I-2000000J0D01*
G01*
X169000000Y-109500000D02*
G75*
G02X167000000Y-111500000I-2000000J0D01*
G01*
X277000000Y-109500000D02*
G75*
G02X275000000Y-111500000I-2000000J0D01*
G01*
X277000000Y-30000000D02*
X277000000Y-109500000D01*
X275000000Y-28000000D02*
G75*
G02X277000000Y-30000000I0J-2000000D01*
G01*
X151000000Y-111500000D02*
G75*
G02X149000000Y-109500000I0J2000000D01*
G01*
X149000000Y-30000000D02*
X149000000Y-109500000D01*
X149000000Y-30000000D02*
G75*
G02X151000000Y-28000000I2000000J0D01*
G01*
X151000000Y-28000000D02*
X275000000Y-28000000D01*
D11*
X273500000Y-108450000D02*
X260500000Y-108450000D01*
X273950000Y-108000000D02*
G75*
G02X273500000Y-108450000I-450000J0D01*
G01*
X260500000Y-108450000D02*
G75*
G02X260050000Y-108000000I0J450000D01*
G01*
X260050000Y-108000000D02*
X260050000Y-95000000D01*
X260500000Y-94550000D02*
X273500000Y-94550000D01*
X273950000Y-95000000D02*
X273950000Y-108000000D01*
X273500000Y-94550000D02*
G75*
G02X273950000Y-95000000I0J-450000D01*
G01*
X260050000Y-95000000D02*
G75*
G02X260500000Y-94550000I450000J0D01*
G01*
X255500000Y-103450000D02*
X242500000Y-103450000D01*
X255950000Y-103000000D02*
G75*
G02X255500000Y-103450000I-450000J0D01*
G01*
X242500000Y-103450000D02*
G75*
G02X242050000Y-103000000I0J450000D01*
G01*
X242050000Y-103000000D02*
X242050000Y-90000000D01*
X242500000Y-89550000D02*
X255500000Y-89550000D01*
X255950000Y-90000000D02*
X255950000Y-103000000D01*
X255500000Y-89550000D02*
G75*
G02X255950000Y-90000000I0J-450000D01*
G01*
X242050000Y-90000000D02*
G75*
G02X242500000Y-89550000I450000J0D01*
G01*
X237500000Y-99450000D02*
X224500000Y-99450000D01*
X237950000Y-99000000D02*
G75*
G02X237500000Y-99450000I-450000J0D01*
G01*
X224500000Y-99450000D02*
G75*
G02X224050000Y-99000000I0J450000D01*
G01*
X224050000Y-99000000D02*
X224050000Y-86000000D01*
X224500000Y-85550000D02*
X237500000Y-85550000D01*
X237950000Y-86000000D02*
X237950000Y-99000000D01*
X237500000Y-85550000D02*
G75*
G02X237950000Y-86000000I0J-450000D01*
G01*
X224050000Y-86000000D02*
G75*
G02X224500000Y-85550000I450000J0D01*
G01*
X219500000Y-99450000D02*
X206500000Y-99450000D01*
X219950000Y-99000000D02*
G75*
G02X219500000Y-99450000I-450000J0D01*
G01*
X206500000Y-99450000D02*
G75*
G02X206050000Y-99000000I0J450000D01*
G01*
X206050000Y-99000000D02*
X206050000Y-86000000D01*
X206500000Y-85550000D02*
X219500000Y-85550000D01*
X219950000Y-86000000D02*
X219950000Y-99000000D01*
X219500000Y-85550000D02*
G75*
G02X219950000Y-86000000I0J-450000D01*
G01*
X206050000Y-86000000D02*
G75*
G02X206500000Y-85550000I450000J0D01*
G01*
X201500000Y-99450000D02*
X188500000Y-99450000D01*
X201950000Y-99000000D02*
G75*
G02X201500000Y-99450000I-450000J0D01*
G01*
X188500000Y-99450000D02*
G75*
G02X188050000Y-99000000I0J450000D01*
G01*
X188050000Y-99000000D02*
X188050000Y-86000000D01*
X188500000Y-85550000D02*
X201500000Y-85550000D01*
X201950000Y-86000000D02*
X201950000Y-99000000D01*
X201500000Y-85550000D02*
G75*
G02X201950000Y-86000000I0J-450000D01*
G01*
X188050000Y-86000000D02*
G75*
G02X188500000Y-85550000I450000J0D01*
G01*
X183500000Y-103450000D02*
X170500000Y-103450000D01*
X183950000Y-103000000D02*
G75*
G02X183500000Y-103450000I-450000J0D01*
G01*
X170500000Y-103450000D02*
G75*
G02X170050000Y-103000000I0J450000D01*
G01*
X170050000Y-103000000D02*
X170050000Y-90000000D01*
X170500000Y-89550000D02*
X183500000Y-89550000D01*
X183950000Y-90000000D02*
X183950000Y-103000000D01*
X183500000Y-89550000D02*
G75*
G02X183950000Y-90000000I0J-450000D01*
G01*
X170050000Y-90000000D02*
G75*
G02X170500000Y-89550000I450000J0D01*
G01*
X165500000Y-108450000D02*
X152500000Y-108450000D01*
X165950000Y-108000000D02*
G75*
G02X165500000Y-108450000I-450000J0D01*
G01*
X152500000Y-108450000D02*
G75*
G02X152050000Y-108000000I0J450000D01*
G01*
X152050000Y-108000000D02*
X152050000Y-95000000D01*
X152500000Y-94550000D02*
X165500000Y-94550000D01*
X165950000Y-95000000D02*
X165950000Y-108000000D01*
X165500000Y-94550000D02*
G75*
G02X165950000Y-95000000I0J-450000D01*
G01*
X152050000Y-95000000D02*
G75*
G02X152500000Y-94550000I450000J0D01*
G01*
X273500000Y-82450000D02*
X260500000Y-82450000D01*
X273950000Y-82000000D02*
G75*
G02X273500000Y-82450000I-450000J0D01*
G01*
X260500000Y-82450000D02*
G75*
G02X260050000Y-82000000I0J450000D01*
G01*
X260050000Y-82000000D02*
X260050000Y-69000000D01*
X260500000Y-68550000D02*
X273500000Y-68550000D01*
X273950000Y-69000000D02*
X273950000Y-82000000D01*
X273500000Y-68550000D02*
G75*
G02X273950000Y-69000000I0J-450000D01*
G01*
X260050000Y-69000000D02*
G75*
G02X260500000Y-68550000I450000J0D01*
G01*
X255500000Y-82450000D02*
X242500000Y-82450000D01*
X255950000Y-82000000D02*
G75*
G02X255500000Y-82450000I-450000J0D01*
G01*
X242500000Y-82450000D02*
G75*
G02X242050000Y-82000000I0J450000D01*
G01*
X242050000Y-82000000D02*
X242050000Y-69000000D01*
X242500000Y-68550000D02*
X255500000Y-68550000D01*
X255950000Y-69000000D02*
X255950000Y-82000000D01*
X255500000Y-68550000D02*
G75*
G02X255950000Y-69000000I0J-450000D01*
G01*
X242050000Y-69000000D02*
G75*
G02X242500000Y-68550000I450000J0D01*
G01*
X237500000Y-82450000D02*
X224500000Y-82450000D01*
X237950000Y-82000000D02*
G75*
G02X237500000Y-82450000I-450000J0D01*
G01*
X224500000Y-82450000D02*
G75*
G02X224050000Y-82000000I0J450000D01*
G01*
X224050000Y-82000000D02*
X224050000Y-69000000D01*
X224500000Y-68550000D02*
X237500000Y-68550000D01*
X237950000Y-69000000D02*
X237950000Y-82000000D01*
X237500000Y-68550000D02*
G75*
G02X237950000Y-69000000I0J-450000D01*
G01*
X224050000Y-69000000D02*
G75*
G02X224500000Y-68550000I450000J0D01*
G01*
X219500000Y-82450000D02*
X206500000Y-82450000D01*
X219950000Y-82000000D02*
G75*
G02X219500000Y-82450000I-450000J0D01*
G01*
X206500000Y-82450000D02*
G75*
G02X206050000Y-82000000I0J450000D01*
G01*
X206050000Y-82000000D02*
X206050000Y-69000000D01*
X206500000Y-68550000D02*
X219500000Y-68550000D01*
X219950000Y-69000000D02*
X219950000Y-82000000D01*
X219500000Y-68550000D02*
G75*
G02X219950000Y-69000000I0J-450000D01*
G01*
X206050000Y-69000000D02*
G75*
G02X206500000Y-68550000I450000J0D01*
G01*
X201500000Y-82450000D02*
X188500000Y-82450000D01*
X201950000Y-82000000D02*
G75*
G02X201500000Y-82450000I-450000J0D01*
G01*
X188500000Y-82450000D02*
G75*
G02X188050000Y-82000000I0J450000D01*
G01*
X188050000Y-82000000D02*
X188050000Y-69000000D01*
X188500000Y-68550000D02*
X201500000Y-68550000D01*
X201950000Y-69000000D02*
X201950000Y-82000000D01*
X201500000Y-68550000D02*
G75*
G02X201950000Y-69000000I0J-450000D01*
G01*
X188050000Y-69000000D02*
G75*
G02X188500000Y-68550000I450000J0D01*
G01*
X183500000Y-82450000D02*
X170500000Y-82450000D01*
X183950000Y-82000000D02*
G75*
G02X183500000Y-82450000I-450000J0D01*
G01*
X170500000Y-82450000D02*
G75*
G02X170050000Y-82000000I0J450000D01*
G01*
X170050000Y-82000000D02*
X170050000Y-69000000D01*
X170500000Y-68550000D02*
X183500000Y-68550000D01*
X183950000Y-69000000D02*
X183950000Y-82000000D01*
X183500000Y-68550000D02*
G75*
G02X183950000Y-69000000I0J-450000D01*
G01*
X170050000Y-69000000D02*
G75*
G02X170500000Y-68550000I450000J0D01*
G01*
X165500000Y-82450000D02*
X152500000Y-82450000D01*
X165950000Y-82000000D02*
G75*
G02X165500000Y-82450000I-450000J0D01*
G01*
X152500000Y-82450000D02*
G75*
G02X152050000Y-82000000I0J450000D01*
G01*
X152050000Y-82000000D02*
X152050000Y-69000000D01*
X152500000Y-68550000D02*
X165500000Y-68550000D01*
X165950000Y-69000000D02*
X165950000Y-82000000D01*
X165500000Y-68550000D02*
G75*
G02X165950000Y-69000000I0J-450000D01*
G01*
X152050000Y-69000000D02*
G75*
G02X152500000Y-68550000I450000J0D01*
G01*
X273500000Y-65450000D02*
X260500000Y-65450000D01*
X273950000Y-65000000D02*
G75*
G02X273500000Y-65450000I-450000J0D01*
G01*
X260500000Y-65450000D02*
G75*
G02X260050000Y-65000000I0J450000D01*
G01*
X260050000Y-65000000D02*
X260050000Y-52000000D01*
X260500000Y-51550000D02*
X273500000Y-51550000D01*
X273950000Y-52000000D02*
X273950000Y-65000000D01*
X273500000Y-51550000D02*
G75*
G02X273950000Y-52000000I0J-450000D01*
G01*
X260050000Y-52000000D02*
G75*
G02X260500000Y-51550000I450000J0D01*
G01*
X255500000Y-65450000D02*
X242500000Y-65450000D01*
X255950000Y-65000000D02*
G75*
G02X255500000Y-65450000I-450000J0D01*
G01*
X242500000Y-65450000D02*
G75*
G02X242050000Y-65000000I0J450000D01*
G01*
X242050000Y-65000000D02*
X242050000Y-52000000D01*
X242500000Y-51550000D02*
X255500000Y-51550000D01*
X255950000Y-52000000D02*
X255950000Y-65000000D01*
X255500000Y-51550000D02*
G75*
G02X255950000Y-52000000I0J-450000D01*
G01*
X242050000Y-52000000D02*
G75*
G02X242500000Y-51550000I450000J0D01*
G01*
X237500000Y-65450000D02*
X224500000Y-65450000D01*
X237950000Y-65000000D02*
G75*
G02X237500000Y-65450000I-450000J0D01*
G01*
X224500000Y-65450000D02*
G75*
G02X224050000Y-65000000I0J450000D01*
G01*
X224050000Y-65000000D02*
X224050000Y-52000000D01*
X224500000Y-51550000D02*
X237500000Y-51550000D01*
X237950000Y-52000000D02*
X237950000Y-65000000D01*
X237500000Y-51550000D02*
G75*
G02X237950000Y-52000000I0J-450000D01*
G01*
X224050000Y-52000000D02*
G75*
G02X224500000Y-51550000I450000J0D01*
G01*
X219500000Y-65450000D02*
X206500000Y-65450000D01*
X219950000Y-65000000D02*
G75*
G02X219500000Y-65450000I-450000J0D01*
G01*
X206500000Y-65450000D02*
G75*
G02X206050000Y-65000000I0J450000D01*
G01*
X206050000Y-65000000D02*
X206050000Y-52000000D01*
X206500000Y-51550000D02*
X219500000Y-51550000D01*
X219950000Y-52000000D02*
X219950000Y-65000000D01*
X219500000Y-51550000D02*
G75*
G02X219950000Y-52000000I0J-450000D01*
G01*
X206050000Y-52000000D02*
G75*
G02X206500000Y-51550000I450000J0D01*
G01*
X201500000Y-65450000D02*
X188500000Y-65450000D01*
X201950000Y-65000000D02*
G75*
G02X201500000Y-65450000I-450000J0D01*
G01*
X188500000Y-65450000D02*
G75*
G02X188050000Y-65000000I0J450000D01*
G01*
X188050000Y-65000000D02*
X188050000Y-52000000D01*
X188500000Y-51550000D02*
X201500000Y-51550000D01*
X201950000Y-52000000D02*
X201950000Y-65000000D01*
X201500000Y-51550000D02*
G75*
G02X201950000Y-52000000I0J-450000D01*
G01*
X188050000Y-52000000D02*
G75*
G02X188500000Y-51550000I450000J0D01*
G01*
X183500000Y-65450000D02*
X170500000Y-65450000D01*
X183950000Y-65000000D02*
G75*
G02X183500000Y-65450000I-450000J0D01*
G01*
X170500000Y-65450000D02*
G75*
G02X170050000Y-65000000I0J450000D01*
G01*
X170050000Y-65000000D02*
X170050000Y-52000000D01*
X170500000Y-51550000D02*
X183500000Y-51550000D01*
X183950000Y-52000000D02*
X183950000Y-65000000D01*
X183500000Y-51550000D02*
G75*
G02X183950000Y-52000000I0J-450000D01*
G01*
X170050000Y-52000000D02*
G75*
G02X170500000Y-51550000I450000J0D01*
G01*
X165500000Y-65450000D02*
X152500000Y-65450000D01*
X165950000Y-65000000D02*
G75*
G02X165500000Y-65450000I-450000J0D01*
G01*
X152500000Y-65450000D02*
G75*
G02X152050000Y-65000000I0J450000D01*
G01*
X152050000Y-65000000D02*
X152050000Y-52000000D01*
X152500000Y-51550000D02*
X165500000Y-51550000D01*
X165950000Y-52000000D02*
X165950000Y-65000000D01*
X165500000Y-51550000D02*
G75*
G02X165950000Y-52000000I0J-450000D01*
G01*
X152050000Y-52000000D02*
G75*
G02X152500000Y-51550000I450000J0D01*
G01*
X273500000Y-48450000D02*
X260500000Y-48450000D01*
X273950000Y-48000000D02*
G75*
G02X273500000Y-48450000I-450000J0D01*
G01*
X260500000Y-48450000D02*
G75*
G02X260050000Y-48000000I0J450000D01*
G01*
X260050000Y-48000000D02*
X260050000Y-35000000D01*
X260500000Y-34550000D02*
X273500000Y-34550000D01*
X273950000Y-35000000D02*
X273950000Y-48000000D01*
X273500000Y-34550000D02*
G75*
G02X273950000Y-35000000I0J-450000D01*
G01*
X260050000Y-35000000D02*
G75*
G02X260500000Y-34550000I450000J0D01*
G01*
X255500000Y-48450000D02*
X242500000Y-48450000D01*
X255950000Y-48000000D02*
G75*
G02X255500000Y-48450000I-450000J0D01*
G01*
X242500000Y-48450000D02*
G75*
G02X242050000Y-48000000I0J450000D01*
G01*
X242050000Y-48000000D02*
X242050000Y-35000000D01*
X242500000Y-34550000D02*
X255500000Y-34550000D01*
X255950000Y-35000000D02*
X255950000Y-48000000D01*
X255500000Y-34550000D02*
G75*
G02X255950000Y-35000000I0J-450000D01*
G01*
X242050000Y-35000000D02*
G75*
G02X242500000Y-34550000I450000J0D01*
G01*
X237500000Y-48450000D02*
X224500000Y-48450000D01*
X237950000Y-48000000D02*
G75*
G02X237500000Y-48450000I-450000J0D01*
G01*
X224500000Y-48450000D02*
G75*
G02X224050000Y-48000000I0J450000D01*
G01*
X224050000Y-48000000D02*
X224050000Y-35000000D01*
X224500000Y-34550000D02*
X237500000Y-34550000D01*
X237950000Y-35000000D02*
X237950000Y-48000000D01*
X237500000Y-34550000D02*
G75*
G02X237950000Y-35000000I0J-450000D01*
G01*
X224050000Y-35000000D02*
G75*
G02X224500000Y-34550000I450000J0D01*
G01*
X219500000Y-48450000D02*
X206500000Y-48450000D01*
X219950000Y-48000000D02*
G75*
G02X219500000Y-48450000I-450000J0D01*
G01*
X206500000Y-48450000D02*
G75*
G02X206050000Y-48000000I0J450000D01*
G01*
X206050000Y-48000000D02*
X206050000Y-35000000D01*
X206500000Y-34550000D02*
X219500000Y-34550000D01*
X219950000Y-35000000D02*
X219950000Y-48000000D01*
X219500000Y-34550000D02*
G75*
G02X219950000Y-35000000I0J-450000D01*
G01*
X206050000Y-35000000D02*
G75*
G02X206500000Y-34550000I450000J0D01*
G01*
X201500000Y-48450000D02*
X188500000Y-48450000D01*
X201950000Y-48000000D02*
G75*
G02X201500000Y-48450000I-450000J0D01*
G01*
X188500000Y-48450000D02*
G75*
G02X188050000Y-48000000I0J450000D01*
G01*
X188050000Y-48000000D02*
X188050000Y-35000000D01*
X188500000Y-34550000D02*
X201500000Y-34550000D01*
X201950000Y-35000000D02*
X201950000Y-48000000D01*
X201500000Y-34550000D02*
G75*
G02X201950000Y-35000000I0J-450000D01*
G01*
X188050000Y-35000000D02*
G75*
G02X188500000Y-34550000I450000J0D01*
G01*
X183500000Y-48450000D02*
X170500000Y-48450000D01*
X183950000Y-48000000D02*
G75*
G02X183500000Y-48450000I-450000J0D01*
G01*
X170500000Y-48450000D02*
G75*
G02X170050000Y-48000000I0J450000D01*
G01*
X170050000Y-48000000D02*
X170050000Y-35000000D01*
X170500000Y-34550000D02*
X183500000Y-34550000D01*
X183950000Y-35000000D02*
X183950000Y-48000000D01*
X183500000Y-34550000D02*
G75*
G02X183950000Y-35000000I0J-450000D01*
G01*
X170050000Y-35000000D02*
G75*
G02X170500000Y-34550000I450000J0D01*
G01*
X165500000Y-48450000D02*
X152500000Y-48450000D01*
X165950000Y-48000000D02*
G75*
G02X165500000Y-48450000I-450000J0D01*
G01*
X152500000Y-48450000D02*
G75*
G02X152050000Y-48000000I0J450000D01*
G01*
X152050000Y-48000000D02*
X152050000Y-35000000D01*
X152500000Y-34550000D02*
X165500000Y-34550000D01*
X165950000Y-35000000D02*
X165950000Y-48000000D01*
X165500000Y-34550000D02*
G75*
G02X165950000Y-35000000I0J-450000D01*
G01*
X152050000Y-35000000D02*
G75*
G02X152500000Y-34550000I450000J0D01*
G01*
M02*
