G04 #@! TF.GenerationSoftware,KiCad,Pcbnew,(5.1.0-0)*
G04 #@! TF.CreationDate,2019-06-09T21:39:38+02:00*
G04 #@! TF.ProjectId,ssol56-pcb,73736f6c-3536-42d7-9063-622e6b696361,rev?*
G04 #@! TF.SameCoordinates,Original*
G04 #@! TF.FileFunction,Legend,Top*
G04 #@! TF.FilePolarity,Positive*
%FSLAX46Y46*%
G04 Gerber Fmt 4.6, Leading zero omitted, Abs format (unit mm)*
G04 Created by KiCad (PCBNEW (5.1.0-0)) date 2019-06-09 21:39:38*
%MOMM*%
%LPD*%
G04 APERTURE LIST*
%ADD10C,0.150000*%
G04 APERTURE END LIST*
D10*
X269988095Y-97952380D02*
X269988095Y-96952380D01*
X269988095Y-97428571D02*
X270559523Y-97428571D01*
X270559523Y-97952380D02*
X270559523Y-96952380D01*
X271464285Y-97285714D02*
X271464285Y-97952380D01*
X271226190Y-96904761D02*
X270988095Y-97619047D01*
X271607142Y-97619047D01*
X264738095Y-39452380D02*
X264738095Y-38452380D01*
X264738095Y-38928571D02*
X265309523Y-38928571D01*
X265309523Y-39452380D02*
X265309523Y-38452380D01*
X265690476Y-38452380D02*
X266309523Y-38452380D01*
X265976190Y-38833333D01*
X266119047Y-38833333D01*
X266214285Y-38880952D01*
X266261904Y-38928571D01*
X266309523Y-39023809D01*
X266309523Y-39261904D01*
X266261904Y-39357142D01*
X266214285Y-39404761D01*
X266119047Y-39452380D01*
X265833333Y-39452380D01*
X265738095Y-39404761D01*
X265690476Y-39357142D01*
X155238095Y-97702380D02*
X155238095Y-96702380D01*
X155238095Y-97178571D02*
X155809523Y-97178571D01*
X155809523Y-97702380D02*
X155809523Y-96702380D01*
X156238095Y-96797619D02*
X156285714Y-96750000D01*
X156380952Y-96702380D01*
X156619047Y-96702380D01*
X156714285Y-96750000D01*
X156761904Y-96797619D01*
X156809523Y-96892857D01*
X156809523Y-96988095D01*
X156761904Y-97130952D01*
X156190476Y-97702380D01*
X156809523Y-97702380D01*
X178238095Y-38202380D02*
X178238095Y-37202380D01*
X178238095Y-37678571D02*
X178809523Y-37678571D01*
X178809523Y-38202380D02*
X178809523Y-37202380D01*
X179809523Y-38202380D02*
X179238095Y-38202380D01*
X179523809Y-38202380D02*
X179523809Y-37202380D01*
X179428571Y-37345238D01*
X179333333Y-37440476D01*
X179238095Y-37488095D01*
M02*
